#!OML:ASF F:\VICON\USERDATA\INSTALL\rory3\rory3.ASF
:FULLY-SPECIFIED
:DEGREES
54
root 0.7108728205691253 17.750582218173612 20.52667441176885 -2.580699775926121 -4.671560765519942 -0.6297335687114358
lfemur -22.203870516614394 -5.321207370868644 -21.25060042116501
ltibia 31.49155507126831
lfoot 0.23432827836236392 -5.052639786495135
ltoes -9.045585434962302
rfemur -2.107043009045805 6.266067137129194 24.465522181755876
rtibia 51.34785953221374
rfoot 1.6025288674150637 -9.975867350323064
rtoes 6.362782501118501
lowerback 8.783729812409286 2.488773268927047 2.2233235101710744
upperback 0.7430083126242915 3.533714932521326 0.5215772048817295
thorax -4.271169286575455 1.7927982045779831 -1.2903187058386822
lowerneck -15.777214227907626 -2.9576129796786277 -1.7842609383151262
upperneck 20.189248104901903 -3.9496152550280783 1.1184223436451648
head 9.070958331958602 -1.8467515751081471 0.0859578637234934
lclavicle -1.9574068385874497e-15 9.029843252743382e-16
lhumerus -36.12780079353984 7.246020841678325 81.05595352924493
lradius 21.533720722108434
lwrist 1.0762222126040961
lhand -25.556178862373002 23.295382028127126
lfingers 7.12502
lthumb 0.8474502908412007 52.82310441303749
rclavicle -1.95587311917697e-15 9.039069314836757e-16
rhumerus -26.922607204867674 -16.27063674312588 -81.52967563626568
rradius 27.083814897520018
rwrist 4.134046820564566
rhand -17.557352234397552 22.751699541953492
rfingers 7.12502
rthumb 8.774337585741083 -7.060364180822867
55
root 0.8089532902921297 18.083835728216897 17.68014225490213 -2.194443487230917 -5.565963283651971 0.7944576476419907
lfemur -18.83275915177721 -5.049710552062697 -23.71758623107596
ltibia 31.91633582019437
lfoot -1.498614185921335 -4.287998931088224
ltoes -8.990626510486894
rfemur -7.035074415421051 5.851758841657274 21.81702599057563
rtibia 57.84023939604568
rfoot -0.06017093239124094 -10.811416317891918
rtoes 6.738283324817985
lowerback 8.660237962646802 2.2198275363620366 1.4237735349060825
upperback 0.766579348381175 3.0414995251715453 0.39470217265973817
thorax -4.2944934441803575 1.5722480103212593 -0.8834582821750895
lowerneck -15.638633901116071 -2.9637057076983844 -1.8890660993168096
upperneck 20.21769102808548 -3.9747696635845813 1.2534589418664204
head 9.091176880023328 -1.8582265664953261 0.1255474975684379
lclavicle -1.9565866317893865e-15 9.037403123871003e-16
lhumerus -35.81608263381348 6.288499362232844 81.36684602582947
lradius 22.085093276106818
lwrist 0.9469352257676995
lhand -25.591882827297702 23.09251493927211
lfingers 7.12502
lthumb 0.8323365718998061 52.70643459106419
rclavicle -1.9560497382329705e-15 9.037259062484936e-16
rhumerus -27.53777119447841 -16.957708581661233 -81.422266335161
rradius 26.654907673481922
rwrist 4.547422131518373
rhand -17.367898719410764 22.462137821887204
rfingers 7.12502
rthumb 8.909004552696807 -7.3692944982765685
56
root 0.8099385832518401 18.260066476422654 16.057962204543717 -2.04762181188431 -7.212338332898533 0.061690296262021604
lfemur -15.324750549469185 -4.239767916202119 -23.814306582728037
ltibia 31.19428562163515
lfoot -3.506393437273805 -2.710546949137221
ltoes -7.91064935811538
rfemur -11.299163656421982 6.374203373053458 22.023173270736205
rtibia 61.95003055884257
rfoot -2.3307983315295413 -10.663697106788934
rtoes 6.667065604993242
lowerback 9.034036204322259 2.058019388898051 1.8751281310034211
upperback 0.6827673032538173 2.9217396223506453 0.5288579863131764
thorax -4.5248240161557405 1.505410912209733 -0.7293206131352444
lowerneck -15.538954224214542 -2.948725569844402 -2.033725435284406
upperneck 20.273268813087718 -3.9537728263490384 1.3331654959733998
head 9.113919911023578 -1.8496201326867816 0.1553951237944644
lclavicle -1.9547861717962365e-15 9.054046561922308e-16
lhumerus -35.28745790696811 5.0229797383856765 81.73704545495092
lradius 22.95801390574813
lwrist 1.5409637979183812
lhand -25.72767432905965 22.913594820186628
lfingers 7.12502
lthumb 0.7110929501506826 52.6189140317877
rclavicle -1.9564348587842727e-15 9.032858893204662e-16
rhumerus -27.98042940202866 -17.288295843830443 -81.42836179744685
rradius 26.39086521982965
rwrist 4.681025627605183
rhand -17.21371266844846 22.259475561168927
rfingers 7.12502
rthumb 9.030279863484758 -7.548800446895533
57
root 0.8691717827768086 18.287568421405638 13.375343139179913 -2.074690917271142 -8.49423190260566 -0.4008410918091625
lfemur -12.279829367036886 -3.7127859235270155 -23.873035198238412
ltibia 30.0082639108652
lfoot -5.703168767095882 -2.145436725588871
ltoes -7.851324533354505
rfemur -14.591907272240599 6.675182554114691 22.445901329947453
rtibia 63.550088357977806
rfoot -4.109507086104542 -9.482137306672191
rtoes 6.792031136804427
lowerback 9.606982160037099 2.0386529493730485 2.1330058256926603
upperback 0.7288994878278108 2.9691606761496243 0.6822262553824711
thorax -4.686546781505912 1.5198133446743651 -0.5533933099703082
lowerneck -15.565098734477994 -2.911144760526962 -2.1725352937778926
upperneck 20.372705890818175 -3.8766347380025907 1.3386294885043153
head 9.150812932669899 -1.8187724046401985 0.1677542116214684
lclavicle -1.954417621843612e-15 9.057438551398884e-16
lhumerus -34.52507300997767 3.8817353787350166 81.97982942397994
lradius 23.920804402852117
lwrist 2.7031358535696475
lhand -25.981484273455795 22.79031047563718
lfingers 7.12502
lthumb 0.4285107440574374 52.44619534467953
rclavicle -1.956482719926168e-15 9.03112330427186e-16
rhumerus -28.35345562790755 -17.393467972482853 -81.4826510222486
rradius 26.305038683043726
rwrist 4.611297400581053
rhand -17.07433967427689 22.213516070729902
rfingers 7.12502
rthumb 9.157460564153038 -7.580084468748338
